# xmcd CD database file
#
# Track frame offsets:
#	150
#	18084
#	44686
#	71727
#	95378
#	120159
#	144938
#	172062
#	198178
#	239634
#	269100
#	303847
#
# Disc length: 4438 seconds
#
# Revision: 4
# Processed by: cddbd v1.5.2PL0 Copyright (c) Steve Scherf et al.
# Submitted via: CDex 1.51
#
DISCID=a611540c
DTITLE=Cody McFadyen - Der Todeskünstler CD4
DYEAR=2007
DGENRE=Hörbuch
TTITLE0=35
TTITLE1=36
TTITLE2=37
TTITLE3=38
TTITLE4=39
TTITLE5=40
TTITLE6=41
TTITLE7=42
TTITLE8=43
TTITLE9=44
TTITLE10=45
TTITLE11=46
EXTD=YEAR: 2007
EXTT0=
EXTT1=
EXTT2=
EXTT3=
EXTT4=
EXTT5=
EXTT6=
EXTT7=
EXTT8=
EXTT9=
EXTT10=
EXTT11=
PLAYORDER=
